<svg xmlns="http://www.w3.org/2000/svg" viewBox="0 0 459.11 496.82"><title>bird_vector</title><g id="Layer_2" data-name="Layer 2"><g id="Layer_1-2" data-name="Layer 1"><path d="M48.56,124.16c1.92-6.89,7.95-9.73,12.89-14.15l-33.14,6.73a49.57,49.57,0,0,1,.56-5.25A37.75,37.75,0,0,1,37.3,94.7c1.42-1.63,3-3.17,4.35-4.82,6.23-7.4,14-12.4,23.55-13.95,6-1,9.49-4.34,11.63-9.67a63,63,0,0,0,2.5-6c2.9-10.22,10.25-16.44,19-21.43,1.16-.66,2.36-1.24,3.56-1.82,4.82-2.33,4.79-2.3,8.19,2.08a25.52,25.52,0,0,0,3.45,3.6,174,174,0,0,0,63.58,35.6c2.22.68,4.53,1.07,6.8,1.59,7.5,1.73,13.64-.08,19.79-5.16a170.93,170.93,0,0,1,25.15-17.12,670.61,670.61,0,0,1,79-38.28c14.32-5.73,29.29-8.69,44.55-10.52,13.42-1.6,26.89-2.58,40.39-1.85,22.63,1.23,45.28,3,66.75,11,8.84,3.28,17.16,8,25.63,12.22,2.82,1.41,3,5.15.3,7.52a128.94,128.94,0,0,1-12,9.8c-9,6.27-18.22,12.3-27.47,18.24a37.93,37.93,0,0,1-8.57,3.9c-3.66,1.21-6.76,3.09-8.49,6.51C425,84,418.27,88,410.1,90.42a112.68,112.68,0,0,0-12.5,5c-4.16,1.79-6.82,4.92-8.76,9.1A60.21,60.21,0,0,1,382,115.41c-2.24,2.91-3.81,2.86-6.55.36a8.2,8.2,0,0,0-6.37-2.25c-2.14.14-4.28.21-6.84.33.78-2.33,2.53-2.79,4.15-3.33,2.67-.9,5.39-1.7,8.07-2.57,2.13-.69,4.16-1.54,4.09-4.31-.06-2.06-1.82-3.56-5-3.92-3.8-.42-7.64-.57-11.46-.87a5.92,5.92,0,0,1-3.5-1.33,30.21,30.21,0,0,1,4.33-1.46c5.72-1.06,11.44-2.14,17.2-2.92,9.05-1.23,17.29-4.72,25.4-8.62,1.63-.78,3.58-1.71,2.73-4.07s-2.67-2.44-4.93-2.22c-6,.58-12,1-17.93,1.26-12,.5-24,.65-36,1.32-5.63.31-11.2,1.51-16.81,2.25-2.11.28-4.24.43-6.36.63l-.27-1a40.41,40.41,0,0,1,5.93-1.74c10.55-1.43,21.09-3,31.68-4,17.88-1.76,35.91-2.61,53.2-8.08,8.39-2.65,16.56-6,24.82-9.1,1.58-.59,3.43-1.49,2.89-3.46-.38-1.4-1.62-3.21-2.86-3.59a18,18,0,0,0-7.26-.58c-8.92,1.05-17.78,2.68-26.72,3.51-9.94.92-19.94,1.49-29.92,1.68a220.49,220.49,0,0,0-45,5.75,33.56,33.56,0,0,1-6.39.84c6.23-3.88,12.79-7.19,20.13-7.85,14.92-1.33,29.88-2.23,44.84-3.16,16.3-1,32.56-2.21,48.33-6.89.32-.09.66-.11,1-.21,3.49-1.08,4.77-2.44,4.62-4.94s-1.36-3.58-5.14-4.31c-12.9-2.49-25.78-5.13-38.72-7.39-12-2.1-24.18-2-36.36-1a265.2,265.2,0,0,0-40,5.88,218.32,218.32,0,0,0-49.44,18.49c-19.38,10-38.61,20.26-57.82,30.57-7.58,4.06-9.28,8-7.87,16.32.53,3.13-.32,4.86-3.76,5.11a60.29,60.29,0,0,1-13.89-.44c-9.26-1.5-17.88-5.11-26.29-9.19-12.33-6-23.76-13.41-35.1-21a177.44,177.44,0,0,0-19.69-11.77c-10-5-14.87-4.08-22.79,3.92a37.93,37.93,0,0,0-7.1,10.1c-2,4.21-4.78,7.17-9.09,8.65a82.34,82.34,0,0,1-9.57,2.78A21,21,0,0,0,51,94c-3.67,4-7.37,8-11.46,12.46,2.79,1.12,4.66.36,6.5,0,6.53-1.21,13-2.69,19.6-3.64A37.67,37.67,0,0,1,82,104.31c-6.43,5-15.11,6.72-18.71,15.28a12.68,12.68,0,0,0,3.34.58c7.11-.76,14.35-1,21.28-2.64,8.85-2,17.49-1.22,26.29-.3,14.25,1.49,26.41,7.63,37.49,16.29,6,4.72,12,9.49,17.91,14.4,3.2,2.68,4.61,3.86,3.28,8.33-2-.37-4-.81-6.11-1.1-2.75-.38-3.68.22-4.24,2.89a24.67,24.67,0,0,0-.37,4.47,349.32,349.32,0,0,0,1.79,46.42c1.6,14.89,3.24,29.78,5.18,44.63a195.51,195.51,0,0,0,45.67,103.08q31.5,37.17,63.87,73.64c9.17,10.31,19.46,19.65,29.2,29.46a5.64,5.64,0,0,0,5.85,1.82c2.09-.56,2.64-1.82,1.48-3.73a38.9,38.9,0,0,0-2.73-3.58l-75.26-96c-.82-1-1.6-2.1-2.84-3.73,3.41.11,5.26,1.82,6.95,3.67,4.15,4.56,8.28,9.14,12.31,13.81q19.59,22.71,39.1,45.49a10.69,10.69,0,0,0,2.38,2.53c.88.51,2.36.88,3.1.46s1.05-1.86,1.21-2.9a4.91,4.91,0,0,0-.53-2.41c-1.71-4.14-2.92-8.62-5.33-12.31-8.82-13.52-17.72-27-29.11-38.64-13.64-13.94-27-28.15-40.46-42.26a25.2,25.2,0,0,1-3.41-4.36,26.09,26.09,0,0,1,10.28,6.09q22.72,22.15,45.28,44.51c2,2,3.57,4.39,5.46,6.51a13.68,13.68,0,0,0,3.36,2.91c1.84,1,3.49-.19,3-2.2a28.16,28.16,0,0,0-2-5.62,225.65,225.65,0,0,0-29.24-45.78,23.81,23.81,0,0,0-3.17-3.18c-11-9.17-22.13-18.2-35-24.71-1.64-.82-2.84-2.53-4.25-3.83,1.83-2.44,3.62-2.49,5.59-1.47,4.72,2.44,9.5,4.78,14.11,7.42,4.19,2.4,8.1,5.28,12.28,7.68a16.91,16.91,0,0,0,6.06,2c2.28.29,3.16-.86,2.48-3-2.07-6.42-4.71-12.32-11.2-15.82-9.67-5.22-19.11-10.86-28.64-16.32-3.53-2-4.59-3.56-3.26-5,1.89-2.11,3.72-.21,5.32.64C227.67,274.15,238.3,280,249,285.75c1.65.87,4.32,2.15,5.3,1.48,2.28-1.58.29-4-.53-5.79-3.49-7.68-8.14-14.3-15.53-19-9.25-5.92-18.07-12.52-27.06-18.85-2.31-1.63-4.57-3.32-5.6-6.85,1.72.65,3.08,1.07,4.35,1.66,8.44,4,16.85,8,25.3,11.91,1.65.77,3.42,1.27,5.12,1.95a3.34,3.34,0,0,0,4.4-1.18c1.2-1.7-.12-2.82-1.12-3.87-2.31-2.4-4.61-4.83-7.08-7.05-5.7-5.12-11.51-10.12-17.27-15.19-1.21-1.06-2.38-2.17-4.43-4a44.94,44.94,0,0,1,17,7c2.63,1.75,5.22,3.58,7.94,5.19.71.42,2.35.55,2.65.15a3.84,3.84,0,0,0,.61-3.09,12.28,12.28,0,0,0-2.62-4.2c-4.49-4.67-9.1-9.23-13.71-13.8-2.33-2.32-5.28-4.1-6.59-8.23a32,32,0,0,1,3.21,1.59c4.7,3.15,9.38,6.35,14.06,9.53a8.4,8.4,0,0,0,2.08,1.37c1.2.35,2.85.94,3.65.42s.83-2.37.61-3.53a36.82,36.82,0,0,0-12.39-21.67c-6.15-5.26-13.35-8.75-20.59-12.14-4.67-2.18-9.46-4.13-14.13-6.3-.76-.35-1.22-1.33-1.82-2,1-.43,2-1.35,2.87-1.22,13.23,2,25.56,6.33,35.64,15.48,4.81,4.35,9.17,9.2,13.72,13.84a31.67,31.67,0,0,1,7,11.42c2,5.45,4.27,10.82,6.41,16.24,2.64,6.71,7.59,10.4,14.73,10.93,6.8.51,13.62,1,20.43,1a38.63,38.63,0,0,1,14.12,2.68c2.77,1.1,5.71,1.78,8.45,2.93A88,88,0,0,1,329,249.61c20.4,11.95,40.72,24,61.08,36.07,1.14.68,2.31,1.32,3.5,1.92,2.64,1.33,5.16,3.36,8.4,2,4.08-1.72,7.56-4.21,9.78-8.17a4.12,4.12,0,0,0-1.18-5.77,45.83,45.83,0,0,0-6.74-4.26c-11.12-5.66-22.22-11.39-33.49-16.74a197.77,197.77,0,0,1-25.8-15.18c-9-6.05-17.93-12.14-26.93-18.16-2.43-1.62-4-3.51-3.09-6.85a4.74,4.74,0,0,1,5.77.5c2.25,1.73,4.54,3.4,6.78,5.13a281.3,281.3,0,0,0,49.05,30.67c11.08,5.37,22.1,10.88,33.2,16.21,5.61,2.7,7.58,2,10.49-3.38,4.41-8.1,3.74-10.7-4.8-14.72q-30.48-14.35-61.16-28.3a373.24,373.24,0,0,1-40.06-21.39c-1.48-.9-4-1.85-2.86-3.89s3.33-.28,4.78.62c14.34,9,30.26,14.55,45.65,21.26q31.35,13.67,62.54,27.66c3.09,1.39,5.53,1.56,8.11-.91s5.69-4.64,8.35-7.14a25.83,25.83,0,0,0,4.4-5.39c2.15-3.56,1.38-6-2.47-7.54A116,116,0,0,0,430,219.64c-20.67-5.73-41.39-11.33-62.07-17-5-1.36-9.91-2.86-14.86-4.3-14.71-4.29-26.89-13-38.72-22.26a105.26,105.26,0,0,1-22.86-24.28c-.65-1-1.4-1.87-2-2.84A52.6,52.6,0,0,0,261,127.37c-8.21-2.7-16.3-5.77-24.45-8.68-.94-.33-1.88-.67-2.83-1-1.17-.37-2.53-.89-1.85-2.28.31-.66,1.93-1.12,2.86-1,12.52,1.85,25,3.93,36.73,9a8.41,8.41,0,0,0,8.9-.88c1-.67,1.91-1.35,2.81-2.09a6.62,6.62,0,0,1,6.53-1.1,38,38,0,0,0,8.81,1.42c16.2.7,32.28-.94,48.37-2.48a19.77,19.77,0,0,1,7.08.29c-4.89,1-9.74,2.17-14.67,2.81-13.38,1.73-26.78,3.31-40.33,2.25a83.62,83.62,0,0,0-9.5-.1c-3.44.13-4.72,1.5-5.39,5.3-.56,3.19-.08,4.39,3.39,5.66a80.61,80.61,0,0,0,9.64,2.48c8,1.88,16.11,2.45,24.21.32,3.38-.88,5.33.75,6.8,3.7-2.11,2.09-4.71,2.43-7.38,2.47-3.33,0-6.67-.07-10,0-1.48,0-3.18,0-4.39.62a8.71,8.71,0,0,0-3.61,3.68c-.26.56,1.43,2.33,2.53,3.18,4.6,3.56,9.36,6.92,14,10.46,20.09,15.38,42,27.11,67.06,31.75a175.45,175.45,0,0,0,25.79,2.64c18.15.64,36.32.69,54.47,1.08,3.65.08,7.3.59,10.93,1a12.72,12.72,0,0,1,3.32,1c1.84.78,2.53,2.07,1.44,4-.57,1-1.13,2-1.7,3.05-6.75,12.12-14.91,23.27-23.35,34.23C448,252,438.83,263.88,431.55,277.07c-9.45,17.09-15.22,35.42-18.33,54.61-1.28,7.88-2.06,15.84-3,23.77-.52,4.21-2,5.83-6.23,5.16A33.62,33.62,0,0,1,393.21,357a58.92,58.92,0,0,1-23.57-23.86,213.08,213.08,0,0,0-24.46-35.85,226.76,226.76,0,0,0-37.84-35.48,29.23,29.23,0,0,0-17.56-6.1c-7.83-.1-15.66-.08-23.49-.1-.5,0-1,0-1.5.08-8.1.78-10.61,3.92-8.93,11.89,3.62,17.09,7.25,34.17,11.24,51.16a86.94,86.94,0,0,0,5.53,14.92c2.16,4.86,4.7,9.57,7.29,14.22,17,30.45,30.55,62.46,43.54,94.73,1.66,4.13,2.42,8.61,3.92,12.82a57.82,57.82,0,0,0,4.48,10c4.1,6.86,8.5,13.53,12.85,20.24,2.08,3.21,4.18,6.43,6.5,9.47,2.1,2.75,2.33,5.37.32,8.38-3.35.2-5.93-1.56-8.38-3.57-10.29-8.47-20.64-16.88-30.82-25.48-12.73-10.76-25.18-21.85-38-32.5-11.87-9.86-21.86-21.48-31.81-33.13-6-7-12.23-13.63-19.53-19.2a67.17,67.17,0,0,0-10.66-6.42c-14.37-7.25-14.46-7.16-23.07-20.9-9.2-14.67-18.11-29.53-27.49-44.09a100.35,100.35,0,0,1-13.72-34c-4.82-22.56-7.9-45.31-7.27-68.37.38-14,2.16-27.87,3.32-41.81.28-3.32.76-6.62.92-9.95a18.48,18.48,0,0,0-3-10.42,38.39,38.39,0,0,0-18.61-16c-7.2-3-14.59-5.62-21.94-8.28a38.07,38.07,0,0,0-16.22-2C72.93,128.4,60.79,126.85,48.56,124.16ZM397.1,308.62c.84-6-1.67-10.05-6.7-12.89-1.15-.65-2.18-1.52-3.31-2.22q-33.12-20.43-66.27-40.8a7.58,7.58,0,0,0-4.19-1.13c-1.08.07-2.1,1.2-3.14,1.86a10.74,10.74,0,0,0,2.05,2.49c4.18,2.7,8.66,5,12.66,7.92,20.45,15,38.38,32.37,50.71,54.92a29.71,29.71,0,0,0,5.85,7.36c2.84,2.63,5.34,2.18,7.59-.93a13.37,13.37,0,0,0,2.16-4.44C395.52,316.75,396.26,312.67,397.1,308.62Z" transform="translate(-28.31 -6.72)"/><path d="M104.1,76.28a23,23,0,0,1,4.16,1.18,6,6,0,0,1,3.65,6c-.13,3.88-4,8.38-7.89,9.33s-7.91-.93-10.28-4.49a5.34,5.34,0,0,1-.32-6C95.53,78.46,98.53,76.22,104.1,76.28Z" transform="translate(-28.31 -6.72)"/><path d="M304.15,100.83a20.77,20.77,0,0,1,4.54-1c14.16,0,28.31,0,42.47.07a16.85,16.85,0,0,1,3.23.66c0,.34.09.68.13,1a17.8,17.8,0,0,1-3.79.89q-21,.33-42,.46a21.79,21.79,0,0,1-4.61-1Z" transform="translate(-28.31 -6.72)"/><path d="M195.73,192c1-.35,2.21-1.25,3-1,5.71,2.19,11.69,3.89,16.44,8a10.54,10.54,0,0,1,1.13,1.78l-20.5-7.33Z" transform="translate(-28.31 -6.72)"/><path d="M214.6,220c-5.38-1.43-9.83-2.6-14.26-3.81a2,2,0,0,1-1.22-.8c-.38-.86-1-2-.66-2.69a2.64,2.64,0,0,1,2.42-1,52.26,52.26,0,0,1,7.81,3.15C210.65,215.9,213.19,216.3,214.6,220Z" transform="translate(-28.31 -6.72)"/></g></g></svg>